# xmcd CD database file
#
# Track frame offsets:
#	150
#	85713
#	131642
#	174608
#	196407
#
# Disc length: 3383 seconds
#
# Revision: 1
# Processed by: cddbd v1.5.2PL0 Copyright (c) Steve Scherf et al.
# Submitted via: CDex 1.51
#
DISCID=3c0d3505
DTITLE=Robert Glasper Trio - Live At The Village Vanguard, December 8, 2010
DYEAR=2010
DGENRE=Jazz
TTITLE0=Robert Glasper Trio - G&B
TTITLE1=Robert Glasper Trio - One For 'Grew
TTITLE2=Robert Glasper Trio - I Have A Dream
TTITLE3=Robert Glasper Trio - [Unknown]
TTITLE4=Robert Glasper Trio - Yes I'm Country (And That's OK
EXTD=YEAR: 2010
EXTT0=
EXTT1=
EXTT2=
EXTT3=
EXTT4=
PLAYORDER=
